<mxfile host="app.diagrams.net" agent="Mozilla/5.0 (Windows NT 10.0; Win64; x64) AppleWebKit/537.36 (KHTML, like Gecko) Chrome/136.0.0.0 Safari/537.36" version="27.0.9">
  <diagram name="Page-1" id="mHX3Bhx7psERfE1XM700">
    <mxGraphModel dx="1158" dy="676" grid="1" gridSize="10" guides="1" tooltips="1" connect="1" arrows="1" fold="1" page="1" pageScale="1" pageWidth="850" pageHeight="1100" math="0" shadow="0">
      <root>
        <mxCell id="0" />
        <mxCell id="1" parent="0" />
        <mxCell id="5wl8lFiDzMxbH4mkhzV--1" value="Manage User Accounts" style="ellipse;whiteSpace=wrap;html=1;fillColor=light-dark(#fff8d6, #1f1900);strokeColor=light-dark(#ffe38f, #6d5100);fillStyle=auto;" vertex="1" parent="1">
          <mxGeometry x="436.87" y="100" width="105" height="40" as="geometry" />
        </mxCell>
        <mxCell id="5wl8lFiDzMxbH4mkhzV--2" value="Search and View Existing Titles" style="ellipse;whiteSpace=wrap;html=1;fillColor=light-dark(#fff8d6, #1f1900);strokeColor=light-dark(#ffe38f, #6d5100);fillStyle=auto;" vertex="1" parent="1">
          <mxGeometry x="160" y="390" width="120" height="50" as="geometry" />
        </mxCell>
        <mxCell id="5wl8lFiDzMxbH4mkhzV--3" value="View Submission History" style="ellipse;whiteSpace=wrap;html=1;fillColor=light-dark(#fff8d6, #1f1900);strokeColor=light-dark(#ffe38f, #6d5100);fillStyle=auto;" vertex="1" parent="1">
          <mxGeometry x="366.87" y="140" width="120" height="50" as="geometry" />
        </mxCell>
        <mxCell id="5wl8lFiDzMxbH4mkhzV--4" value="Submit Title for Verification" style="ellipse;whiteSpace=wrap;html=1;fillColor=light-dark(#fff8d6, #1f1900);strokeColor=light-dark(#ffe38f, #6d5100);fillStyle=auto;" vertex="1" parent="1">
          <mxGeometry x="310" y="95" width="105" height="50" as="geometry" />
        </mxCell>
        <mxCell id="5wl8lFiDzMxbH4mkhzV--5" value="Approve/Reject Official Accounts" style="ellipse;whiteSpace=wrap;html=1;fillColor=light-dark(#fff8d6, #1f1900);strokeColor=light-dark(#ffe38f, #6d5100);fillStyle=auto;" vertex="1" parent="1">
          <mxGeometry x="470" y="45" width="120" height="50" as="geometry" />
        </mxCell>
        <mxCell id="5wl8lFiDzMxbH4mkhzV--6" value="Log In" style="ellipse;whiteSpace=wrap;html=1;fillColor=light-dark(#fff8d6, #1f1900);strokeColor=light-dark(#ffe38f, #6d5100);fillStyle=auto;" vertex="1" parent="1">
          <mxGeometry x="386.87" y="255" width="80" height="30" as="geometry" />
        </mxCell>
        <mxCell id="5wl8lFiDzMxbH4mkhzV--7" value="Sign Up" style="ellipse;whiteSpace=wrap;html=1;fillColor=light-dark(#fff8d6, #1f1900);strokeColor=light-dark(#ffe38f, #6d5100);fillStyle=auto;" vertex="1" parent="1">
          <mxGeometry x="305" y="270" width="80" height="30" as="geometry" />
        </mxCell>
        <mxCell id="5wl8lFiDzMxbH4mkhzV--8" value="Manage Account Settings" style="ellipse;whiteSpace=wrap;html=1;fillColor=light-dark(#fff8d6, #1f1900);strokeColor=light-dark(#ffe38f, #6d5100);fillStyle=auto;" vertex="1" parent="1">
          <mxGeometry x="371.87" y="200" width="110" height="50" as="geometry" />
        </mxCell>
        <mxCell id="5wl8lFiDzMxbH4mkhzV--9" value="View Title Analysis&amp;nbsp; &amp;nbsp;and Result" style="ellipse;whiteSpace=wrap;html=1;fillColor=light-dark(#fff8d6, #1f1900);strokeColor=light-dark(#ffe38f, #6d5100);fillStyle=auto;" vertex="1" parent="1">
          <mxGeometry x="250" y="45" width="130" height="50" as="geometry" />
        </mxCell>
        <mxCell id="5wl8lFiDzMxbH4mkhzV--10" value="Register Title" style="ellipse;whiteSpace=wrap;html=1;fillColor=light-dark(#fff8d6, #1f1900);strokeColor=light-dark(#ffe38f, #6d5100);fillStyle=auto;" vertex="1" parent="1">
          <mxGeometry x="160" y="80" width="100" height="40" as="geometry" />
        </mxCell>
        <mxCell id="5wl8lFiDzMxbH4mkhzV--12" value="Approve/Reject Title Registrations" style="ellipse;whiteSpace=wrap;html=1;fillColor=light-dark(#fff8d6, #1f1900);strokeColor=light-dark(#ffe38f, #6d5100);fillStyle=auto;" vertex="1" parent="1">
          <mxGeometry x="556.87" y="390" width="140" height="50" as="geometry" />
        </mxCell>
        <mxCell id="5wl8lFiDzMxbH4mkhzV--13" value="Monitor Title Registration History" style="ellipse;whiteSpace=wrap;html=1;fillColor=light-dark(#fff8d6, #1f1900);strokeColor=light-dark(#ffe38f, #6d5100);fillStyle=auto;" vertex="1" parent="1">
          <mxGeometry x="520" y="330" width="133.75" height="50" as="geometry" />
        </mxCell>
        <mxCell id="5wl8lFiDzMxbH4mkhzV--14" value="Contact Support" style="ellipse;whiteSpace=wrap;html=1;fillColor=light-dark(#fff8d6, #1f1900);strokeColor=light-dark(#ffe38f, #6d5100);fillStyle=auto;" vertex="1" parent="1">
          <mxGeometry x="240" y="300" width="111.87" height="40" as="geometry" />
        </mxCell>
        <mxCell id="5wl8lFiDzMxbH4mkhzV--15" value="Access Help &amp;amp; Guidelines" style="ellipse;whiteSpace=wrap;html=1;fillColor=light-dark(#fff8d6, #1f1900);strokeColor=light-dark(#ffe38f, #6d5100);fillStyle=auto;" vertex="1" parent="1">
          <mxGeometry x="200" y="340" width="110" height="50" as="geometry" />
        </mxCell>
        <mxCell id="5wl8lFiDzMxbH4mkhzV--16" value="Respond to Support Queries" style="ellipse;whiteSpace=wrap;html=1;fillColor=light-dark(#fff8d6, #1f1900);strokeColor=light-dark(#ffe38f, #6d5100);fillStyle=auto;" vertex="1" parent="1">
          <mxGeometry x="590" y="70" width="106.87" height="50" as="geometry" />
        </mxCell>
        <mxCell id="5wl8lFiDzMxbH4mkhzV--18" value="Title Applicant" style="shape=umlActor;verticalLabelPosition=middle;verticalAlign=middle;html=1;outlineConnect=0;fillColor=light-dark(#0000ff, #6db2ff);fontColor=light-dark(#000000, #121212);strokeColor=light-dark(#0000ff, #b2cbff);labelPosition=left;align=right;" vertex="1" parent="1">
          <mxGeometry x="110" y="190" width="20" height="40" as="geometry" />
        </mxCell>
        <mxCell id="5wl8lFiDzMxbH4mkhzV--19" value="PRGI Official" style="shape=umlActor;verticalLabelPosition=bottom;verticalAlign=top;html=1;outlineConnect=0;fillColor=light-dark(#ff0000, #ff9281);fontColor=light-dark(#000000, #121212);strokeColor=light-dark(#ff0000, #ffacac);" vertex="1" parent="1">
          <mxGeometry x="420" y="480" width="20" height="40" as="geometry" />
        </mxCell>
        <mxCell id="5wl8lFiDzMxbH4mkhzV--20" value="System Administrator" style="shape=umlActor;verticalLabelPosition=middle;verticalAlign=middle;html=1;outlineConnect=0;fillColor=light-dark(#00c800, #281d00);strokeColor=light-dark(#00c800, #6d5100);labelPosition=right;align=left;" vertex="1" parent="1">
          <mxGeometry x="730" y="190" width="20" height="40" as="geometry" />
        </mxCell>
        <mxCell id="5wl8lFiDzMxbH4mkhzV--24" value="" style="swimlane;startSize=0;" vertex="1" parent="1">
          <mxGeometry x="150" y="20" width="560" height="440" as="geometry" />
        </mxCell>
        <mxCell id="5wl8lFiDzMxbH4mkhzV--25" value="PRGI - AUTOMATED TITLE VERIFICATION AND REGISTRATION SYSTEM" style="text;html=1;align=center;verticalAlign=middle;whiteSpace=wrap;rounded=0;" vertex="1" parent="5wl8lFiDzMxbH4mkhzV--24">
          <mxGeometry x="10" y="-5" width="540" height="30" as="geometry" />
        </mxCell>
        <mxCell id="5wl8lFiDzMxbH4mkhzV--26" value="" style="endArrow=none;html=1;rounded=0;entryX=0.5;entryY=1;entryDx=0;entryDy=0;strokeColor=light-dark(#0000ff, #ededed);" edge="1" parent="5wl8lFiDzMxbH4mkhzV--24" target="5wl8lFiDzMxbH4mkhzV--10">
          <mxGeometry width="50" height="50" relative="1" as="geometry">
            <mxPoint x="-10" y="190" as="sourcePoint" />
            <mxPoint x="120" y="210" as="targetPoint" />
          </mxGeometry>
        </mxCell>
        <mxCell id="5wl8lFiDzMxbH4mkhzV--11" value="Manage Restricted Words and Affixes" style="ellipse;whiteSpace=wrap;html=1;fillColor=light-dark(#fff8d6, #1f1900);strokeColor=light-dark(#ffe38f, #6d5100);fillStyle=auto;" vertex="1" parent="5wl8lFiDzMxbH4mkhzV--24">
          <mxGeometry x="330" y="250" width="127.5" height="50" as="geometry" />
        </mxCell>
        <mxCell id="5wl8lFiDzMxbH4mkhzV--27" value="" style="endArrow=none;html=1;rounded=0;entryX=0.382;entryY=0.984;entryDx=0;entryDy=0;entryPerimeter=0;strokeColor=light-dark(#0000ff, #ededed);" edge="1" parent="1" target="5wl8lFiDzMxbH4mkhzV--9">
          <mxGeometry width="50" height="50" relative="1" as="geometry">
            <mxPoint x="140" y="210" as="sourcePoint" />
            <mxPoint x="296" y="96" as="targetPoint" />
          </mxGeometry>
        </mxCell>
        <mxCell id="5wl8lFiDzMxbH4mkhzV--28" value="" style="endArrow=none;html=1;rounded=0;entryX=0;entryY=1;entryDx=0;entryDy=0;strokeColor=light-dark(#0000ff, #ededed);" edge="1" parent="1" target="5wl8lFiDzMxbH4mkhzV--4">
          <mxGeometry width="50" height="50" relative="1" as="geometry">
            <mxPoint x="140" y="210" as="sourcePoint" />
            <mxPoint x="380" y="250" as="targetPoint" />
          </mxGeometry>
        </mxCell>
        <mxCell id="5wl8lFiDzMxbH4mkhzV--29" value="" style="endArrow=none;html=1;rounded=0;entryX=0.059;entryY=0.732;entryDx=0;entryDy=0;entryPerimeter=0;strokeColor=light-dark(#0000ff, #ededed);" edge="1" parent="1" target="5wl8lFiDzMxbH4mkhzV--3">
          <mxGeometry width="50" height="50" relative="1" as="geometry">
            <mxPoint x="140" y="210" as="sourcePoint" />
            <mxPoint x="380" y="250" as="targetPoint" />
          </mxGeometry>
        </mxCell>
        <mxCell id="5wl8lFiDzMxbH4mkhzV--30" value="" style="endArrow=none;html=1;rounded=0;entryX=0;entryY=0.5;entryDx=0;entryDy=0;strokeColor=light-dark(#0000ff, #ededed);" edge="1" parent="1" target="5wl8lFiDzMxbH4mkhzV--8">
          <mxGeometry width="50" height="50" relative="1" as="geometry">
            <mxPoint x="140" y="210" as="sourcePoint" />
            <mxPoint x="380" y="250" as="targetPoint" />
          </mxGeometry>
        </mxCell>
        <mxCell id="5wl8lFiDzMxbH4mkhzV--31" value="" style="endArrow=none;html=1;rounded=0;entryX=0;entryY=0;entryDx=0;entryDy=0;strokeColor=light-dark(#0000ff, #ededed);" edge="1" parent="1" target="5wl8lFiDzMxbH4mkhzV--7">
          <mxGeometry width="50" height="50" relative="1" as="geometry">
            <mxPoint x="140" y="210" as="sourcePoint" />
            <mxPoint x="380" y="250" as="targetPoint" />
          </mxGeometry>
        </mxCell>
        <mxCell id="5wl8lFiDzMxbH4mkhzV--32" value="" style="endArrow=none;html=1;rounded=0;exitX=0.029;exitY=0.293;exitDx=0;exitDy=0;exitPerimeter=0;strokeColor=light-dark(#0000ff, #ededed);" edge="1" parent="1" source="5wl8lFiDzMxbH4mkhzV--6">
          <mxGeometry width="50" height="50" relative="1" as="geometry">
            <mxPoint x="330" y="300" as="sourcePoint" />
            <mxPoint x="140" y="210" as="targetPoint" />
          </mxGeometry>
        </mxCell>
        <mxCell id="5wl8lFiDzMxbH4mkhzV--33" value="" style="endArrow=none;html=1;rounded=0;strokeColor=light-dark(#0000ff, #ededed);" edge="1" parent="1">
          <mxGeometry width="50" height="50" relative="1" as="geometry">
            <mxPoint x="140" y="210" as="sourcePoint" />
            <mxPoint x="257" y="306" as="targetPoint" />
          </mxGeometry>
        </mxCell>
        <mxCell id="5wl8lFiDzMxbH4mkhzV--34" value="" style="endArrow=none;html=1;rounded=0;entryX=0;entryY=0;entryDx=0;entryDy=0;strokeColor=light-dark(#0000ff, #ededed);" edge="1" parent="1" target="5wl8lFiDzMxbH4mkhzV--15">
          <mxGeometry width="50" height="50" relative="1" as="geometry">
            <mxPoint x="140" y="210" as="sourcePoint" />
            <mxPoint x="380" y="250" as="targetPoint" />
          </mxGeometry>
        </mxCell>
        <mxCell id="5wl8lFiDzMxbH4mkhzV--35" value="" style="endArrow=none;html=1;rounded=0;entryX=0.25;entryY=0.068;entryDx=0;entryDy=0;entryPerimeter=0;strokeColor=light-dark(#0000ff, #ededed);" edge="1" parent="1" target="5wl8lFiDzMxbH4mkhzV--2">
          <mxGeometry width="50" height="50" relative="1" as="geometry">
            <mxPoint x="140" y="210" as="sourcePoint" />
            <mxPoint x="190" y="390" as="targetPoint" />
          </mxGeometry>
        </mxCell>
        <mxCell id="5wl8lFiDzMxbH4mkhzV--36" value="" style="endArrow=none;html=1;rounded=0;entryX=0.951;entryY=0.7;entryDx=0;entryDy=0;entryPerimeter=0;strokeColor=light-dark(#ff0000, #ededed);" edge="1" parent="1" target="5wl8lFiDzMxbH4mkhzV--2">
          <mxGeometry width="50" height="50" relative="1" as="geometry">
            <mxPoint x="430" y="470" as="sourcePoint" />
            <mxPoint x="380" y="250" as="targetPoint" />
          </mxGeometry>
        </mxCell>
        <mxCell id="5wl8lFiDzMxbH4mkhzV--37" value="" style="endArrow=none;html=1;rounded=0;entryX=0.025;entryY=0.685;entryDx=0;entryDy=0;entryPerimeter=0;spacingLeft=0;strokeColor=light-dark(#ff0000, #ededed);" edge="1" parent="1" target="5wl8lFiDzMxbH4mkhzV--12">
          <mxGeometry width="50" height="50" relative="1" as="geometry">
            <mxPoint x="430" y="470" as="sourcePoint" />
            <mxPoint x="380" y="250" as="targetPoint" />
          </mxGeometry>
        </mxCell>
        <mxCell id="5wl8lFiDzMxbH4mkhzV--40" value="" style="endArrow=none;html=1;rounded=0;strokeColor=light-dark(#ff0000, #ededed);" edge="1" parent="1">
          <mxGeometry width="50" height="50" relative="1" as="geometry">
            <mxPoint x="310" y="370" as="sourcePoint" />
            <mxPoint x="430" y="470" as="targetPoint" />
          </mxGeometry>
        </mxCell>
        <mxCell id="5wl8lFiDzMxbH4mkhzV--41" value="" style="endArrow=none;html=1;rounded=0;exitX=0.018;exitY=0.675;exitDx=0;exitDy=0;exitPerimeter=0;strokeColor=light-dark(#ff0000, #ededed);" edge="1" parent="1" source="5wl8lFiDzMxbH4mkhzV--13">
          <mxGeometry width="50" height="50" relative="1" as="geometry">
            <mxPoint x="340" y="320" as="sourcePoint" />
            <mxPoint x="430" y="470" as="targetPoint" />
          </mxGeometry>
        </mxCell>
        <mxCell id="5wl8lFiDzMxbH4mkhzV--42" value="" style="endArrow=none;html=1;rounded=0;exitX=0;exitY=1;exitDx=0;exitDy=0;strokeColor=light-dark(#ff0000, #ededed);" edge="1" parent="1" source="5wl8lFiDzMxbH4mkhzV--11">
          <mxGeometry width="50" height="50" relative="1" as="geometry">
            <mxPoint x="340" y="320" as="sourcePoint" />
            <mxPoint x="430" y="470" as="targetPoint" />
          </mxGeometry>
        </mxCell>
        <mxCell id="5wl8lFiDzMxbH4mkhzV--43" value="" style="endArrow=none;html=1;rounded=0;exitX=0.907;exitY=0.822;exitDx=0;exitDy=0;exitPerimeter=0;strokeColor=light-dark(#ff0000, #ededed);" edge="1" parent="1" source="5wl8lFiDzMxbH4mkhzV--14">
          <mxGeometry width="50" height="50" relative="1" as="geometry">
            <mxPoint x="340" y="320" as="sourcePoint" />
            <mxPoint x="430" y="470" as="targetPoint" />
          </mxGeometry>
        </mxCell>
        <mxCell id="5wl8lFiDzMxbH4mkhzV--44" value="" style="endArrow=none;html=1;rounded=0;exitX=0.5;exitY=1;exitDx=0;exitDy=0;strokeColor=light-dark(#ff0000, #ededed);" edge="1" parent="1" source="5wl8lFiDzMxbH4mkhzV--6">
          <mxGeometry width="50" height="50" relative="1" as="geometry">
            <mxPoint x="340" y="320" as="sourcePoint" />
            <mxPoint x="430" y="470" as="targetPoint" />
          </mxGeometry>
        </mxCell>
        <mxCell id="5wl8lFiDzMxbH4mkhzV--45" value="" style="endArrow=none;html=1;rounded=0;exitX=1;exitY=1;exitDx=0;exitDy=0;strokeColor=light-dark(#ff0000, #ededed);" edge="1" parent="1" source="5wl8lFiDzMxbH4mkhzV--7">
          <mxGeometry width="50" height="50" relative="1" as="geometry">
            <mxPoint x="300" y="280" as="sourcePoint" />
            <mxPoint x="430" y="470" as="targetPoint" />
          </mxGeometry>
        </mxCell>
        <mxCell id="5wl8lFiDzMxbH4mkhzV--46" value="" style="endArrow=none;html=1;rounded=0;strokeColor=light-dark(#00c800, #ededed);" edge="1" parent="1">
          <mxGeometry width="50" height="50" relative="1" as="geometry">
            <mxPoint x="720" y="210" as="sourcePoint" />
            <mxPoint x="662" y="119" as="targetPoint" />
          </mxGeometry>
        </mxCell>
        <mxCell id="5wl8lFiDzMxbH4mkhzV--47" value="" style="endArrow=none;html=1;rounded=0;entryX=0.706;entryY=0.943;entryDx=0;entryDy=0;entryPerimeter=0;strokeColor=light-dark(#00c800, #ededed);" edge="1" parent="1" target="5wl8lFiDzMxbH4mkhzV--5">
          <mxGeometry width="50" height="50" relative="1" as="geometry">
            <mxPoint x="720" y="210" as="sourcePoint" />
            <mxPoint x="480" y="190" as="targetPoint" />
          </mxGeometry>
        </mxCell>
        <mxCell id="5wl8lFiDzMxbH4mkhzV--48" value="" style="endArrow=none;html=1;rounded=0;entryX=0.919;entryY=0.771;entryDx=0;entryDy=0;entryPerimeter=0;strokeColor=light-dark(#00c800, #ededed);" edge="1" parent="1" target="5wl8lFiDzMxbH4mkhzV--1">
          <mxGeometry width="50" height="50" relative="1" as="geometry">
            <mxPoint x="720" y="210" as="sourcePoint" />
            <mxPoint x="480" y="190" as="targetPoint" />
          </mxGeometry>
        </mxCell>
        <mxCell id="5wl8lFiDzMxbH4mkhzV--49" value="" style="endArrow=none;html=1;rounded=0;entryX=0.932;entryY=0.777;entryDx=0;entryDy=0;entryPerimeter=0;strokeColor=light-dark(#00c800, #ededed);" edge="1" parent="1" target="5wl8lFiDzMxbH4mkhzV--3">
          <mxGeometry width="50" height="50" relative="1" as="geometry">
            <mxPoint x="720" y="210" as="sourcePoint" />
            <mxPoint x="480" y="170" as="targetPoint" />
          </mxGeometry>
        </mxCell>
        <mxCell id="5wl8lFiDzMxbH4mkhzV--50" value="" style="endArrow=none;html=1;rounded=0;exitX=1;exitY=0.5;exitDx=0;exitDy=0;strokeColor=light-dark(#00c800, #ededed);" edge="1" parent="1" source="5wl8lFiDzMxbH4mkhzV--8">
          <mxGeometry width="50" height="50" relative="1" as="geometry">
            <mxPoint x="430" y="240" as="sourcePoint" />
            <mxPoint x="720" y="210" as="targetPoint" />
          </mxGeometry>
        </mxCell>
        <mxCell id="5wl8lFiDzMxbH4mkhzV--51" value="" style="endArrow=none;html=1;rounded=0;exitX=0.947;exitY=0.283;exitDx=0;exitDy=0;exitPerimeter=0;strokeColor=light-dark(#00c800, #ededed);" edge="1" parent="1" source="5wl8lFiDzMxbH4mkhzV--6">
          <mxGeometry width="50" height="50" relative="1" as="geometry">
            <mxPoint x="430" y="240" as="sourcePoint" />
            <mxPoint x="720" y="210" as="targetPoint" />
          </mxGeometry>
        </mxCell>
        <mxCell id="5wl8lFiDzMxbH4mkhzV--54" value="" style="endArrow=none;html=1;rounded=0;entryX=1;entryY=0.5;entryDx=0;entryDy=0;strokeColor=light-dark(#ff0000, #ededed);" edge="1" parent="1" target="5wl8lFiDzMxbH4mkhzV--8">
          <mxGeometry width="50" height="50" relative="1" as="geometry">
            <mxPoint x="430" y="470" as="sourcePoint" />
            <mxPoint x="379" y="240" as="targetPoint" />
          </mxGeometry>
        </mxCell>
        <mxCell id="5wl8lFiDzMxbH4mkhzV--55" value="" style="html=1;verticalAlign=bottom;endArrow=open;dashed=1;endSize=8;curved=0;rounded=0;exitX=0.5;exitY=0;exitDx=0;exitDy=0;entryX=0.041;entryY=0.313;entryDx=0;entryDy=0;entryPerimeter=0;" edge="1" parent="1" source="5wl8lFiDzMxbH4mkhzV--10" target="5wl8lFiDzMxbH4mkhzV--9">
          <mxGeometry relative="1" as="geometry">
            <mxPoint x="450" y="260" as="sourcePoint" />
            <mxPoint x="370" y="260" as="targetPoint" />
            <Array as="points">
              <mxPoint x="210" y="60" />
            </Array>
          </mxGeometry>
        </mxCell>
        <mxCell id="5wl8lFiDzMxbH4mkhzV--59" value="" style="html=1;verticalAlign=bottom;endArrow=open;dashed=1;endSize=8;curved=0;rounded=0;exitX=0;exitY=0.5;exitDx=0;exitDy=0;entryX=0.25;entryY=0.949;entryDx=0;entryDy=0;entryPerimeter=0;" edge="1" parent="1" source="5wl8lFiDzMxbH4mkhzV--3" target="5wl8lFiDzMxbH4mkhzV--4">
          <mxGeometry relative="1" as="geometry">
            <mxPoint x="450" y="260" as="sourcePoint" />
            <mxPoint x="370" y="260" as="targetPoint" />
            <Array as="points">
              <mxPoint x="336" y="165" />
            </Array>
          </mxGeometry>
        </mxCell>
        <mxCell id="5wl8lFiDzMxbH4mkhzV--60" value="" style="html=1;verticalAlign=bottom;endArrow=open;dashed=1;endSize=8;curved=0;rounded=0;exitX=1;exitY=0.5;exitDx=0;exitDy=0;entryX=1;entryY=0;entryDx=0;entryDy=0;" edge="1" parent="1" source="5wl8lFiDzMxbH4mkhzV--9" target="5wl8lFiDzMxbH4mkhzV--4">
          <mxGeometry relative="1" as="geometry">
            <mxPoint x="450" y="260" as="sourcePoint" />
            <mxPoint x="370" y="260" as="targetPoint" />
            <Array as="points">
              <mxPoint x="400" y="70" />
            </Array>
          </mxGeometry>
        </mxCell>
        <mxCell id="5wl8lFiDzMxbH4mkhzV--61" value="" style="html=1;verticalAlign=bottom;endArrow=open;dashed=1;endSize=8;curved=0;rounded=0;exitX=0.5;exitY=1;exitDx=0;exitDy=0;entryX=1;entryY=0.5;entryDx=0;entryDy=0;" edge="1" parent="1" source="5wl8lFiDzMxbH4mkhzV--16" target="5wl8lFiDzMxbH4mkhzV--14">
          <mxGeometry relative="1" as="geometry">
            <mxPoint x="450" y="260" as="sourcePoint" />
            <mxPoint x="370" y="260" as="targetPoint" />
            <Array as="points">
              <mxPoint x="450" y="310" />
            </Array>
          </mxGeometry>
        </mxCell>
        <mxCell id="5wl8lFiDzMxbH4mkhzV--62" value="" style="html=1;verticalAlign=bottom;endArrow=open;dashed=1;endSize=8;curved=0;rounded=0;exitX=0;exitY=0.5;exitDx=0;exitDy=0;entryX=0.66;entryY=1.006;entryDx=0;entryDy=0;entryPerimeter=0;" edge="1" parent="1" source="5wl8lFiDzMxbH4mkhzV--12" target="5wl8lFiDzMxbH4mkhzV--10">
          <mxGeometry relative="1" as="geometry">
            <mxPoint x="450" y="260" as="sourcePoint" />
            <mxPoint x="370" y="260" as="targetPoint" />
            <Array as="points">
              <mxPoint x="290" y="200" />
            </Array>
          </mxGeometry>
        </mxCell>
        <mxCell id="5wl8lFiDzMxbH4mkhzV--63" value="" style="html=1;verticalAlign=bottom;endArrow=open;dashed=1;endSize=8;curved=0;rounded=0;exitX=0;exitY=0.5;exitDx=0;exitDy=0;entryX=0.401;entryY=0.015;entryDx=0;entryDy=0;entryPerimeter=0;" edge="1" parent="1" source="5wl8lFiDzMxbH4mkhzV--5" target="5wl8lFiDzMxbH4mkhzV--7">
          <mxGeometry relative="1" as="geometry">
            <mxPoint x="450" y="260" as="sourcePoint" />
            <mxPoint x="370" y="260" as="targetPoint" />
            <Array as="points">
              <mxPoint x="330" y="190" />
            </Array>
          </mxGeometry>
        </mxCell>
      </root>
    </mxGraphModel>
  </diagram>
</mxfile>
